<?xml version="1.0" standalone="no"?><!-- Generator: Gravit.io --><svg xmlns="http://www.w3.org/2000/svg" xmlns:xlink="http://www.w3.org/1999/xlink" style="isolation:isolate" viewBox="578 -278.78275350985757 1893 1893" width="1893" height="1893"><g style="isolation:isolate"><g style="isolation:isolate"><path d=" M 578 667.7172464901425 C 578 145.32968006014244 1002.1124335699997 -278.78275350985746 1524.4999999999998 -278.78275350985757 C 2046.8875664299999 -278.78275350985757 2471 145.3296800601421 2471 667.7172464901422 C 2471 1190.1048129201422 2046.8875664300003 1614.2172464901423 1524.5000000000002 1614.2172464901423 C 1002.1124335700002 1614.2172464901428 578.0000000000001 1190.1048129201426 578 667.7172464901425 Z " fill="rgb(238,68,69)"/><path d=" M 633.0220298803209 667.7172464901425 C 633.0220298803209 175.69716478198035 1032.4799182918375 -223.76072362953653 1524.4999999999998 -223.76072362953664 C 2016.520081708162 -223.76072362953664 2415.977970119679 175.69716478198 2415.977970119679 667.7172464901422 C 2415.9779701196794 1159.737328198304 2016.5200817081623 1559.1952166098213 1524.5000000000002 1559.1952166098215 C 1032.4799182918382 1559.1952166098217 633.0220298803209 1159.7373281983048 633.0220298803209 667.7172464901425 Z " fill="rgb(235,235,235)"/></g><g style="isolation:isolate"><path d=" M 694.214935035756 661.3687886323887 C 694.4754880096992 591.5520674647394 703.6229454056507 520.6419121593817 722.4621437344268 450.0570729937812 L 1511.0882027322568 661.3687886323889 L 694.2149350357557 661.3687886323889 L 694.214935035756 661.3687886323887 Z " fill="rgb(74,93,170)"/><path d=" M 696.969710409853 661.3687886323889 C 696.6584130316699 738.0440666467223 707.0623199531758 813.401016590368 727.087615726251 885.5647030754981 L 1507.222325341949 676.5282376464834 L 1527.2547753740969 664.962468879331 L 1513.8429781063537 661.3687886323892 L 696.9697104098527 661.3687886323892 L 696.969710409853 661.3687886323889 Z " fill="rgb(83,174,227)"/><path d=" M 724.3328403521539 885.5647030754978 C 743.2431657735945 953.7017817413268 770.7302464254262 1018.9923793571525 805.8850229067159 1079.856036282999 L 1504.467549967852 676.5282376464831 L 724.3328403521539 885.5647030754978 Z " fill="rgb(117,196,130)"/><path d=" M 1526.325083602674 665.768137330148 L 1526.1088152985565 665.3935496393497 L 1526.325083602674 665.4514985567866 L 1526.325083602674 665.768137330148 L 1526.325083602674 665.768137330148 Z " fill="rgb(0,0,255)"/><path d=" M 2111.436617148446 1253.8521726390609 C 2060.3322931307675 1304.5521179178322 2002.9594972222837 1348.2513153290276 1941.0009960871873 1384.0078864283093 L 1530.3855965239184 672.8011520145328 L 2111.436617148446 1253.8521726390604 L 2111.436617148446 1253.8521726390609 Z " fill="rgb(83,174,227)"/><path d=" M 2246.2898005445577 1078.507061331739 C 2209.0024721174664 1143.5260191912037 2163.456332945735 1202.3040803519857 2111.4366171484467 1253.8521726390613 L 2111.4366171484467 1253.8521726390609 L 1530.3855965239186 672.801152014533 L 1526.325083602674 665.768137330148 L 1526.325083602674 665.768137330148 L 1526.325083602674 665.4514985567871 L 1534.780970007102 667.7172464901428 L 2246.2898005445577 1078.507061331739 Z " fill="rgb(117,196,130)"/><path d=" M 2246.2898005445577 1078.507061331739 C 2281.299171914269 1017.6330631513247 2309.0522748765593 951.2757069557782 2328.144965660375 880.298488429366 L 1534.780970007102 667.7172464901428 L 2246.2898005445577 1078.507061331739 Z " fill="rgb(248,239,60)"/><path d=" M 1525.5199474042943 664.3736005275413 L 1526.1088152985562 665.3935496393491 L 1524.4999999999995 664.9624688793302 L 1525.5199474042943 664.3736005275413 Z " fill="rgb(235,235,235)"/><path d=" M 938.4858806598727 76.06955084449851 C 989.8459945202237 24.84814690546773 1047.6144334439848 -19.23850633683469 1110.0375498270407 -55.26302172679334 L 1523.7851184477638 661.3687886323893 L 938.4858806598729 76.06955084449828 L 938.4858806598727 76.06955084449851 Z " fill="rgb(66,66,68)"/><path d=" M 938.4858806598727 76.06955084449851 C 886.9044563495647 127.3013227353199 841.7615083203648 185.7014145042367 804.7232519866302 250.22464118788605 L 804.7232519866302 250.22464118788616 L 1521.8320340731943 664.2475895638088 L 1524.4999999999993 664.9624688793302 L 1525.5199474042943 664.3736005275416 L 1523.7851184477638 661.3687886323893 L 938.4858806598729 76.06955084449828 L 938.4858806598727 76.06955084449851 Z " fill="rgb(238,58,69)"/><path d=" M 804.7232519866301 250.22464118788662 C 769.6036982455704 311.34486814423417 741.773582446889 377.9721689961643 722.6745042733388 449.250899117583 C 722.6025107561929 449.51958258138734 722.5306577231436 449.78827083734313 722.4621437344266 450.0570729937815 L 1521.8320340731943 664.2475895638092 L 804.7232519866303 250.22464118788662 L 804.7232519866301 250.22464118788662 Z " fill="rgb(255,153,0)"/><path d=" M 1526.325083602674 665.4514985567866 L 1526.1088152985565 665.3935496393497 L 1525.5199474042943 664.3736005275418 L 1526.325083602674 663.9087537872992 L 1526.325083602674 665.4514985567866 L 1526.325083602674 665.4514985567866 Z " fill="rgb(0,255,255)"/><path d=" M 2356.7735546600115 664.5893342915829 C 2356.8077357223533 735.5656993472437 2347.6010586380166 807.7009944754768 2328.364142977015 879.4941411032532 C 2328.292149459869 879.7628245670576 2328.2200318838495 880.0314419389392 2328.1449656603754 880.2984884293653 L 1526.325083602674 665.4514985567864 L 1526.325083602674 665.4514985567864 L 1526.3250836026732 664.5893342915833 L 2356.7735546600115 664.5893342915833 L 2356.7735546600115 664.5893342915829 Z " fill="rgb(244,127,58)"/><path d=" M 2356.7735546600115 664.5893342915829 C 2356.8719388462277 591.1224868865381 2347.078879497874 518.8961471857706 2328.4077674797004 449.5560317940371 L 2328.4077674797013 449.5560317940372 L 1526.3250836026732 664.4734392018743 L 1526.3250836026732 664.5893342915833 L 2356.7735546600115 664.5893342915833 L 2356.7735546600115 664.5893342915829 Z " fill="rgb(66,66,68)"/><path d=" M 2328.407767479701 449.556031794037 C 2309.498049464317 379.1080773344548 2281.4023875469793 311.6463855217418 2245.1550482705597 248.89106294532513 L 1526.3250836026739 663.908753787299 L 1526.3250836026734 664.473439201874 L 2328.407767479701 449.5560317940371 L 2328.407767479701 449.556031794037 Z " fill="rgb(238,58,69)"/><path d=" M 1524.5 -166.14920648714528 C 1595.8126366371487 -166.1984952522628 1668.2920866852985 -156.99595486271258 1740.4261312470564 -137.66769587559904 C 1740.6948147110122 -137.5957023584125 1740.963432083044 -137.5235847823536 1741.2304785726449 -137.44851855700475 L 1526.325083602674 664.5893342915833 L 1525.3051340333384 665.1782038933627 L 1524.5 663.7836708407176 L 1524.5 -166.14920648714536 L 1524.5 -166.14920648714528 Z " fill="rgb(117,196,130)"/><path d=" M 1309.5048012295802 -137.41053631524653 C 1378.813811838333 -156.2210536692998 1451.0376377467592 -166.095105894038 1524.4999999999995 -166.14920648714502 L 1524.4999999999995 -166.14920648714514 L 1524.4999999999995 663.7836708407176 L 1523.9106009806933 662.7628017933473 L 1309.5048012295797 -137.41053631524647 L 1309.5048012295802 -137.41053631524653 Z " fill="rgb(248,239,60)"/><path d=" M 1309.5048012295802 -137.41053631524653 C 1239.4051591065977 -118.53697653564507 1172.2828479852433 -90.5352807326648 1109.8227364560844 -54.45841836097222 L 1523.9106009806933 662.7628017933473 L 1309.5048012295797 -137.41053631524647 L 1309.5048012295802 -137.41053631524653 Z " fill="rgb(244,127,58)"/><path d=" M 2110.33075904795 74.82314803220311 C 2162.93497124458 127.02909530931674 2208.1433787546 185.93417709030973 2244.9402348996036 249.69566631114526 L 1530.1350369636511 662.3896513014347 L 1540.203711308006 644.9501957721465 L 2110.3307590479494 74.82314803220333 L 2110.33075904795 74.82314803220311 Z " fill="rgb(192,90,163)"/><path d=" M 2110.33075904795 74.82314803220311 C 2060.9260969449924 25.665461254914135 2004.9761144137783 -17.563514144558212 1943.38934079523 -53.38779938136645 L 1943.3893407952305 -53.38779938136622 L 1540.203711308006 644.9501957721465 L 2110.3307590479494 74.82314803220333 L 2110.33075904795 74.82314803220311 Z " fill="rgb(74,93,170)"/><path d=" M 1943.3893407952305 -53.38779938136531 C 1881.4081044714344 -89.40963840987797 1813.7293759964373 -117.94702962600013 1741.2304785726442 -137.44851855700426 L 1526.3250836026737 664.5893342915836 L 1530.1350369636511 662.3896513014356 L 1943.3893407952305 -53.38779938136531 L 1943.3893407952305 -53.38779938136531 Z " fill="rgb(83,174,227)"/><path d=" M 1525.362162189904 665.8246310692349 L 1526.1088152985565 665.3935496393502 L 1526.325083602674 665.7681373301477 L 1526.3250836026743 666.787552482005 L 1525.3621621899038 665.8246310692346 L 1525.362162189904 665.8246310692349 Z " fill="rgb(153,0,255)"/><path d=" M 1525.362162189904 665.8246310692349 L 1525.0888657292205 665.9824192411292 L 1310.18347075925 1468.0202720897169 C 1310.450517248851 1468.0953383150663 1310.7191346208826 1468.167455891125 1310.9878180848386 1468.2394494083119 C 1382.9235662307437 1487.5145750309355 1455.2028234346005 1496.7195767164399 1526.3250836026743 1496.715237848276 L 1526.3250836026739 1496.715237848276 L 1526.3250836026743 666.787552482005 L 1525.3621621899038 665.8246310692346 L 1525.362162189904 665.8246310692349 Z " fill="rgb(238,58,69)"/><path d=" M 1741.7846312574438 1468.0147326107117 C 1672.3285974874407 1486.853090051488 1599.9465509343568 1496.7165093612095 1526.3250836026737 1496.7152378482765 L 1526.3250836026732 1496.7152378482765 L 1526.325083602674 665.768137330148 L 1527.2547753740973 667.3784107136314 L 1741.7846312574447 1468.014732610712 L 1741.7846312574438 1468.0147326107117 Z " fill="rgb(192,90,163)"/><path d=" M 1741.7846312574438 1468.0147326107117 C 1811.9294075087555 1449.1418429852783 1879.094167639918 1421.1283671164097 1941.591212875809 1385.0301718936853 L 1527.2547753740973 667.3784107136314 L 1741.7846312574447 1468.014732610712 L 1741.7846312574438 1468.0147326107117 Z " fill="rgb(74,93,170)"/><path d=" M 937.6301450865323 1252.2634028453035 C 886.4871412165609 1200.9396523942883 842.458286240222 1143.2300524191955 806.473714432292 1080.8760872215664 L 1518.701203845044 669.670346588838 L 1516.622116598343 673.2714313334924 L 937.630145086532 1252.2634028453035 L 937.6301450865323 1252.2634028453035 Z " fill="rgb(248,239,60)"/><path d=" M 937.6301450865323 1252.2634028453035 C 987.5237587362036 1302.526023202207 1044.2180527234514 1346.6841811702616 1106.7447853759068 1383.1997938814898 L 1106.7447853759058 1383.1997938814898 L 1516.622116598343 673.2714313334924 L 937.630145086532 1252.2634028453035 L 937.6301450865323 1252.2634028453035 Z " fill="rgb(244,127,58)"/><path d=" M 1106.7447853759063 1383.1997938814907 C 1169.068248526096 1419.5855140376734 1237.18226280525 1448.3836665763538 1310.183470759251 1468.0202720897178 L 1525.0888657292219 665.9824192411302 L 1518.701203845044 669.6703465888388 L 1106.7447853759058 1383.1997938814907 L 1106.7447853759063 1383.1997938814907 Z " fill="rgb(66,66,68)"/></g><g style="isolation:isolate"><defs><filter id="tfvtFsWaqOD8hJ9mhQ7XXFWSlTdmpw0t" x="-200%" y="-200%" width="400%" height="400%"><feOffset xmlns="http://www.w3.org/2000/svg" in="SourceAlpha" result="offOut" dx="0" dy="0"/><feGaussianBlur xmlns="http://www.w3.org/2000/svg" in="offOut" result="blurOut" stdDeviation="7"/><feComponentTransfer xmlns="http://www.w3.org/2000/svg" in="blurOut" result="opacOut"><feFuncA xmlns="http://www.w3.org/2000/svg" type="table" tableValues="0 0.5"/></feComponentTransfer><feBlend xmlns="http://www.w3.org/2000/svg" in="SourceGraphic" in2="opacOut" mode="normal"/></filter></defs><g filter="url(#tfvtFsWaqOD8hJ9mhQ7XXFWSlTdmpw0t)"><path d=" M 1344.6398207096688 664.5893342915832 C 1344.6398207096688 566.7942903092087 1424.0369900908197 487.39712092805763 1521.8320340731943 487.3971209280576 C 1619.6270780555687 487.3971209280576 1699.0242474367199 566.7942903092087 1699.0242474367199 664.5893342915832 C 1699.02424743672 762.3843782739576 1619.627078055569 841.7815476551089 1521.8320340731943 841.7815476551089 C 1424.03699009082 841.7815476551089 1344.6398207096688 762.3843782739577 1344.6398207096688 664.5893342915832 Z " fill="rgb(235,235,235)"/></g><path d=" M 690.5103457413479 665.3935496393493 C 690.5103457413479 206.5746233972444 1063.0131078310892 -165.9281386924971 1521.832034073194 -165.9281386924972 C 1980.650960315299 -165.9281386924972 2353.1537224050408 206.57462339724412 2353.1537224050408 665.393549639349 C 2353.1537224050408 1124.2124758814537 1980.6509603152995 1496.7152379711954 1521.8320340731946 1496.7152379711956 C 1063.0131078310897 1496.7152379711958 690.5103457413479 1124.2124758814543 690.5103457413479 665.3935496393493 Z " fill="none"/><g style="isolation: isolate;"><path d=" M 690.5103457413479 665.3935496393493 C 690.5103457413479 206.5746233972444 1063.0131078310892 -165.9281386924971 1521.832034073194 -165.9281386924972 C 1980.650960315299 -165.9281386924972 2353.1537224050408 206.57462339724412 2353.1537224050408 665.393549639349 C 2353.1537224050408 1124.2124758814537 1980.6509603152995 1496.7152379711954 1521.8320340731946 1496.7152379711956 C 1063.0131078310897 1496.7152379711958 690.5103457413479 1124.2124758814543 690.5103457413479 665.3935496393493 Z " fill="none" vector-effect="non-scaling-stroke" stroke-width="35" stroke="rgb(0,0,0)" stroke-opacity="0.14" stroke-linejoin="miter" stroke-linecap="square"/></g></g></g></svg>